<svg width="218" height="39" viewBox="0 0 218 39" fill="none" xmlns="http://www.w3.org/2000/svg">
<path d="M51.0774 29V10.0909H53.9304V19.1207H54.1612L62.0923 10.0909H65.6839L58.0575 18.6037L65.7116 29H62.277L56.1648 20.5518L53.9304 23.1186V29H51.0774ZM73.1926 29.2862C71.7954 29.2862 70.592 28.9877 69.5826 28.3906C68.5792 27.7874 67.8037 26.9411 67.2559 25.8516C66.7142 24.7559 66.4434 23.4725 66.4434 22.0014C66.4434 20.5488 66.7142 19.2685 67.2559 18.1605C67.8037 17.0526 68.5669 16.1877 69.5456 15.5661C70.5305 14.9444 71.6815 14.6335 72.9988 14.6335C73.7989 14.6335 74.5745 14.7659 75.3255 15.0305C76.0764 15.2952 76.7504 15.7107 77.3475 16.277C77.9445 16.8433 78.4154 17.5788 78.7601 18.4837C79.1048 19.3823 79.2772 20.4749 79.2772 21.7614V22.7401H68.0037V20.6719H76.5719C76.5719 19.9455 76.4242 19.3023 76.1287 18.7422C75.8333 18.1759 75.4178 17.7296 74.8823 17.4034C74.3529 17.0772 73.7312 16.9141 73.0172 16.9141C72.2417 16.9141 71.5646 17.1049 70.986 17.4865C70.4135 17.862 69.9703 18.3544 69.6564 18.9638C69.3487 19.567 69.1948 20.2225 69.1948 20.9304V22.5462C69.1948 23.4941 69.361 24.3004 69.6934 24.9652C70.0319 25.63 70.5028 26.1378 71.106 26.4886C71.7092 26.8333 72.414 27.0057 73.2203 27.0057C73.7435 27.0057 74.2206 26.9318 74.6515 26.7841C75.0823 26.6302 75.4547 26.4025 75.7686 26.1009C76.0826 25.7992 76.3226 25.4268 76.4888 24.9837L79.1017 25.4545C78.8925 26.224 78.517 26.898 77.9753 27.4766C77.4398 28.049 76.7658 28.4953 75.9533 28.8153C75.147 29.1293 74.2267 29.2862 73.1926 29.2862ZM88.4524 29.2862C87.0552 29.2862 85.8518 28.9877 84.8423 28.3906C83.839 27.7874 83.0634 26.9411 82.5156 25.8516C81.974 24.7559 81.7031 23.4725 81.7031 22.0014C81.7031 20.5488 81.974 19.2685 82.5156 18.1605C83.0634 17.0526 83.8267 16.1877 84.8054 15.5661C85.7902 14.9444 86.9413 14.6335 88.2585 14.6335C89.0587 14.6335 89.8343 14.7659 90.5852 15.0305C91.3362 15.2952 92.0102 15.7107 92.6072 16.277C93.2043 16.8433 93.6752 17.5788 94.0199 18.4837C94.3646 19.3823 94.5369 20.4749 94.5369 21.7614V22.7401H83.2635V20.6719H91.8317C91.8317 19.9455 91.6839 19.3023 91.3885 18.7422C91.093 18.1759 90.6776 17.7296 90.142 17.4034C89.6127 17.0772 88.991 16.9141 88.277 16.9141C87.5014 16.9141 86.8243 17.1049 86.2457 17.4865C85.6733 17.862 85.2301 18.3544 84.9162 18.9638C84.6084 19.567 84.4545 20.2225 84.4545 20.9304V22.5462C84.4545 23.4941 84.6207 24.3004 84.9531 24.9652C85.2917 25.63 85.7625 26.1378 86.3658 26.4886C86.969 26.8333 87.6738 27.0057 88.4801 27.0057C89.0033 27.0057 89.4804 26.9318 89.9112 26.7841C90.3421 26.6302 90.7145 26.4025 91.0284 26.1009C91.3423 25.7992 91.5824 25.4268 91.7486 24.9837L94.3615 25.4545C94.1522 26.224 93.7768 26.898 93.2351 27.4766C92.6996 28.049 92.0256 28.4953 91.2131 28.8153C90.4067 29.1293 89.4865 29.2862 88.4524 29.2862ZM97.6 34.3182V14.8182H100.296V17.1172H100.527C100.687 16.8217 100.918 16.4801 101.219 16.0923C101.521 15.7045 101.939 15.366 102.475 15.0767C103.01 14.7812 103.718 14.6335 104.599 14.6335C105.743 14.6335 106.765 14.9228 107.664 15.5014C108.563 16.08 109.267 16.9141 109.778 18.0036C110.295 19.093 110.554 20.4041 110.554 21.9368C110.554 23.4695 110.298 24.7836 109.787 25.8793C109.277 26.9687 108.575 27.8089 107.682 28.3999C106.79 28.9846 105.771 29.277 104.626 29.277C103.765 29.277 103.06 29.1323 102.512 28.843C101.97 28.5537 101.546 28.2152 101.238 27.8274C100.93 27.4396 100.693 27.0949 100.527 26.7933H100.361V34.3182H97.6ZM100.305 21.9091C100.305 22.9062 100.45 23.7803 100.739 24.5312C101.028 25.2822 101.447 25.87 101.995 26.2947C102.543 26.7133 103.214 26.9226 104.008 26.9226C104.832 26.9226 105.522 26.7041 106.076 26.267C106.63 25.8239 107.048 25.2237 107.331 24.4666C107.621 23.7095 107.765 22.857 107.765 21.9091C107.765 20.9735 107.624 20.1333 107.341 19.3885C107.064 18.6437 106.645 18.0559 106.085 17.625C105.531 17.1941 104.839 16.9787 104.008 16.9787C103.207 16.9787 102.53 17.1849 101.976 17.5973C101.429 18.0097 101.013 18.5852 100.73 19.3239C100.447 20.0625 100.305 20.9242 100.305 21.9091ZM120.749 10.0909H124.212L130.232 24.7898H130.453L136.473 10.0909H139.935V29H137.221V15.3168H137.045L131.469 28.9723H129.216L123.639 15.3075H123.464V29H120.749V10.0909ZM145.607 34.3182C145.194 34.3182 144.819 34.2843 144.48 34.2166C144.142 34.1551 143.889 34.0874 143.723 34.0135L144.388 31.7514C144.893 31.8868 145.342 31.9453 145.736 31.9268C146.13 31.9084 146.478 31.7607 146.779 31.4837C147.087 31.2067 147.358 30.7543 147.592 30.1264L147.933 29.1847L142.744 14.8182H145.699L149.291 25.8239H149.438L153.03 14.8182H155.994L150.149 30.8928C149.878 31.6314 149.534 32.2562 149.115 32.767C148.697 33.2841 148.198 33.6719 147.619 33.9304C147.041 34.1889 146.37 34.3182 145.607 34.3182ZM165.691 29V10.0909H168.544V26.544H177.112V29H165.691ZM180.145 29V14.8182H182.906V29H180.145ZM181.539 12.63C181.059 12.63 180.647 12.4699 180.302 12.1499C179.963 11.8236 179.794 11.4358 179.794 10.9865C179.794 10.531 179.963 10.1432 180.302 9.82315C180.647 9.49692 181.059 9.33381 181.539 9.33381C182.019 9.33381 182.429 9.49692 182.767 9.82315C183.112 10.1432 183.284 10.531 183.284 10.9865C183.284 11.4358 183.112 11.8236 182.767 12.1499C182.429 12.4699 182.019 12.63 181.539 12.63ZM193.369 14.8182V17.0341H185.355V14.8182H193.369ZM187.552 29V13.1747C187.552 12.2884 187.746 11.5528 188.134 10.968C188.521 10.3771 189.035 9.93703 189.676 9.64773C190.316 9.35227 191.011 9.20454 191.762 9.20454C192.316 9.20454 192.79 9.25071 193.184 9.34304C193.578 9.42921 193.87 9.50923 194.061 9.5831L193.415 11.8175C193.286 11.7805 193.119 11.7375 192.916 11.6882C192.713 11.6328 192.467 11.6051 192.178 11.6051C191.507 11.6051 191.027 11.7713 190.737 12.1037C190.454 12.4361 190.313 12.9162 190.313 13.544V29H187.552ZM202.837 14.8182V17.0341H195.091V14.8182H202.837ZM197.168 11.4205H199.929V24.8359C199.929 25.3714 200.009 25.7746 200.169 26.0455C200.329 26.3101 200.535 26.4917 200.787 26.5902C201.046 26.6825 201.326 26.7287 201.628 26.7287C201.849 26.7287 202.043 26.7133 202.209 26.6825C202.376 26.6518 202.505 26.6271 202.597 26.6087L203.096 28.8892C202.936 28.9508 202.708 29.0123 202.412 29.0739C202.117 29.1416 201.748 29.1785 201.305 29.1847C200.578 29.197 199.901 29.0677 199.273 28.7969C198.645 28.526 198.138 28.1075 197.75 27.5412C197.362 26.9749 197.168 26.264 197.168 25.4084V11.4205ZM216.29 18.2805L213.787 18.7237C213.683 18.4036 213.517 18.099 213.289 17.8097C213.067 17.5204 212.766 17.2834 212.384 17.0987C212.002 16.9141 211.525 16.8217 210.953 16.8217C210.171 16.8217 209.519 16.9972 208.996 17.348C208.472 17.6927 208.211 18.139 208.211 18.6868C208.211 19.1607 208.386 19.5424 208.737 19.8317C209.088 20.121 209.654 20.358 210.436 20.5426L212.689 21.0597C213.994 21.3613 214.966 21.826 215.606 22.4538C216.247 23.0817 216.567 23.8973 216.567 24.9006C216.567 25.75 216.32 26.5071 215.828 27.1719C215.342 27.8305 214.662 28.3475 213.787 28.723C212.92 29.0985 211.913 29.2862 210.768 29.2862C209.18 29.2862 207.885 28.9477 206.881 28.2706C205.878 27.5874 205.262 26.6179 205.035 25.3622L207.703 24.956C207.869 25.6515 208.211 26.1778 208.728 26.5348C209.245 26.8857 209.919 27.0611 210.75 27.0611C211.655 27.0611 212.378 26.8733 212.92 26.4979C213.461 26.1162 213.732 25.6515 213.732 25.1037C213.732 24.6605 213.566 24.2881 213.233 23.9865C212.907 23.6849 212.406 23.4571 211.729 23.3033L209.328 22.777C208.005 22.4754 207.026 21.9953 206.392 21.3366C205.764 20.678 205.45 19.844 205.45 18.8345C205.45 17.9974 205.684 17.2649 206.152 16.6371C206.62 16.0092 207.266 15.5199 208.091 15.169C208.916 14.812 209.86 14.6335 210.925 14.6335C212.458 14.6335 213.664 14.9659 214.545 15.6307C215.425 16.2893 216.006 17.1726 216.29 18.2805Z" fill="black"/>
<path d="M21.775 3.25H9.75C8.88805 3.25 8.0614 3.59241 7.4519 4.2019C6.84241 4.8114 6.5 5.63805 6.5 6.5V32.5C6.5 33.362 6.84241 34.1886 7.4519 34.7981C8.0614 35.4076 8.88805 35.75 9.75 35.75H29.25C30.112 35.75 30.9386 35.4076 31.5481 34.7981C32.1576 34.1886 32.5 33.362 32.5 32.5V20.475" stroke="black" stroke-width="3" stroke-linecap="round" stroke-linejoin="round"/>
<path d="M3.25 9.75H9.75" stroke="black" stroke-width="3" stroke-linecap="round" stroke-linejoin="round"/>
<path d="M3.25 16.25H9.75" stroke="black" stroke-width="3" stroke-linecap="round" stroke-linejoin="round"/>
<path d="M3.25 22.75H9.75" stroke="black" stroke-width="3" stroke-linecap="round" stroke-linejoin="round"/>
<path d="M3.25 29.25H9.75" stroke="black" stroke-width="3" stroke-linecap="round" stroke-linejoin="round"/>
<path d="M34.7396 9.14249C35.3869 8.49516 35.7506 7.6172 35.7506 6.70174C35.7506 5.78628 35.3869 4.90832 34.7396 4.26099C34.0923 3.61366 33.2143 3.25 32.2988 3.25C31.3834 3.25 30.5054 3.61366 29.8581 4.26099L21.7168 12.4055C21.3305 12.7916 21.0477 13.2689 20.8946 13.7932L19.5345 18.457C19.4937 18.5968 19.4912 18.745 19.5274 18.8861C19.5635 19.0272 19.6369 19.156 19.7399 19.259C19.8429 19.362 19.9717 19.4354 20.1128 19.4716C20.2539 19.5077 20.4021 19.5053 20.542 19.4645L25.2057 18.1044C25.73 17.9513 26.2073 17.6685 26.5935 17.2821L34.7396 9.14249Z" stroke="black" stroke-width="3" stroke-linecap="round" stroke-linejoin="round"/>
</svg>
